# xmcd
#
# Track frame offsets: 
#        150
#        12275
#        24047
#        37104
#        52050
#        69342
#        82955
#        95343
#        111631
#        122612
#        133175
#        143947
#        154382
#        165659
#        175567
#        187882
#
# Disc length: 2692 seconds
#
# Revision: 0
# Processed by: cddbd v1.5.1PL2 Copyright (c) Steve Scherf et al.
# Submitted via: ExactAudioCopy v0.95b3
#
DISCID=d20a8210
DTITLE=Front Porch Swingin' Liquor Pigs - Last Album
DYEAR=2005
DGENRE=Rockabilly
TTITLE0=I Can't Be Satisfied
TTITLE1=The Prodigal One
TTITLE2=The Damage is Done
TTITLE3=Samson and Delilah
TTITLE4=Back Door Blues
TTITLE5=Waldo's Song
TTITLE6=No More Time
TTITLE7=Take a Giant Step
TTITLE8=Jesus at Palmer's
TTITLE9=Chug-A-Lug
TTITLE10=Mr. Whiskey
TTITLE11=The Intoxicated Rat
TTITLE12=Whiskey, Women and Loaded Dice
TTITLE13=Drinkin' Out Loud
TTITLE14=I'm Gettin' Ready to Go
TTITLE15=Prayer O' Death
EXTD=
EXTT0=
EXTT1=
EXTT2=
EXTT3=
EXTT4=
EXTT5=
EXTT6=
EXTT7=
EXTT8=
EXTT9=
EXTT10=
EXTT11=
EXTT12=
EXTT13=
EXTT14=
EXTT15=
PLAYORDER=
